<mxfile host="app.diagrams.net" modified="2023-07-27T15:16:52.757Z" agent="Mozilla/5.0 (Windows NT 10.0; Win64; x64) AppleWebKit/537.36 (KHTML, like Gecko) Chrome/115.0.0.0 Safari/537.36" version="21.6.5" etag="yJj0TzEIJCBwVb_xV9aK" type="github">
  <diagram name="第 1 页" id="lsDUtiNqhasOPbywI6J2">
    <mxGraphModel>
      <root>
        <mxCell id="0" />
        <mxCell id="1" parent="0" />
      </root>
    </mxGraphModel>
  </diagram>
</mxfile>
